<?xml version="1.0" standalone="no"?>
<!DOCTYPE svg PUBLIC "-//W3C//DTD SVG 20010904//EN"
 "http://www.w3.org/TR/2001/REC-SVG-20010904/DTD/svg10.dtd">
<svg version="1.0" xmlns="http://www.w3.org/2000/svg"
 width="1024.000000pt" height="1536.000000pt" viewBox="0 0 1024.000000 1536.000000"
 preserveAspectRatio="xMidYMid meet">

<g transform="translate(0.000000,1536.000000) scale(0.100000,-0.100000)"
fill="#000000" stroke="none">
<path d="M2695 11189 c-489 -85 -867 -364 -1085 -799 -81 -162 -128 -314 -150
-485 -8 -66 -10 -703 -8 -2400 l4 -2310 22 -100 c60 -261 167 -479 328 -670
171 -200 460 -387 721 -464 218 -64 84 -61 2572 -61 1547 0 2292 3 2359 11
360 40 634 171 888 424 225 225 352 462 417 779 l22 111 0 2335 c0 2206 -1
2340 -18 2429 -112 583 -524 1027 -1085 1170 -206 53 -103 51 -2579 50 -2220
-1 -2302 -1 -2408 -20z m4833 -266 c267 -62 449 -155 616 -313 189 -179 310
-408 363 -682 17 -88 18 -226 18 -2348 0 -2144 -1 -2260 -19 -2365 -25 -154
-59 -264 -116 -380 -170 -346 -491 -580 -895 -652 -94 -17 -232 -18 -2375 -18
-2526 0 -2344 -5 -2552 65 -486 163 -806 568 -848 1075 -13 162 -13 4350 0
4502 15 171 49 298 121 451 175 377 551 637 989 685 19 2 1063 3 2320 3 l2285
-2 93 -21z"/>
<path d="M5298 10530 c-14 -10 -31 -33 -38 -49 -22 -54 14 -106 170 -244 l137
-122 -361 -6 c-299 -5 -385 -9 -501 -27 -156 -24 -324 -66 -460 -114 -124 -44
-378 -173 -508 -258 -206 -134 -458 -341 -491 -402 -19 -35 -19 -38 -2 -75 9
-22 59 -83 110 -136 74 -78 98 -97 121 -97 22 0 52 24 149 118 175 170 314
271 514 372 150 75 271 119 455 166 192 48 269 55 680 61 213 3 387 3 387 0 0
-2 -61 -90 -135 -193 -168 -236 -182 -262 -166 -315 17 -55 60 -82 121 -74 85
12 451 165 721 301 248 125 617 352 821 506 106 81 124 144 51 181 -62 32
-1645 427 -1709 427 -26 0 -51 -7 -66 -20z"/>
<path d="M2173 8685 c-33 -24 -28 -57 17 -111 26 -32 43 -65 50 -98 8 -35 10
-246 8 -666 -3 -677 1 -630 -64 -716 -14 -17 -24 -45 -24 -62 0 -44 15 -46
276 -47 240 0 254 3 254 55 0 15 -9 35 -20 45 -12 10 -31 35 -43 54 -22 35
-22 44 -27 449 -3 226 -2 412 1 412 4 0 55 -98 114 -217 60 -120 166 -335 237
-478 72 -143 139 -270 151 -283 35 -37 87 -45 259 -37 102 5 161 11 167 19 7
8 11 279 13 752 3 816 -1 764 67 828 35 33 41 75 14 97 -21 18 -500 27 -532 9
-31 -16 -26 -56 10 -98 62 -71 63 -76 67 -427 2 -176 2 -342 0 -370 l-3 -50
-49 95 c-51 100 -265 505 -369 698 -33 62 -72 122 -87 132 -23 16 -54 19 -246
25 -194 6 -222 5 -241 -10z"/>
<path d="M3880 8692 c-58 -8 -67 -52 -19 -98 17 -16 41 -47 52 -69 22 -40 22
-44 22 -670 0 -698 1 -687 -65 -750 -36 -34 -43 -100 -12 -109 37 -10 1081
-11 1092 0 5 5 17 97 26 202 16 184 16 193 -1 212 -30 34 -59 25 -128 -40 -35
-32 -76 -64 -91 -70 -36 -13 -371 -13 -397 0 -18 10 -19 23 -19 199 0 153 3
191 15 201 10 8 56 11 162 8 132 -3 152 -5 186 -25 47 -28 73 -29 87 -3 6 12
9 83 8 186 -4 201 -7 207 -91 159 -52 -30 -53 -30 -195 -28 -95 1 -148 5 -157
13 -12 10 -15 46 -15 191 0 152 2 180 17 194 14 15 38 17 182 13 159 -3 168
-4 211 -30 25 -14 65 -47 90 -72 34 -36 51 -46 76 -46 56 0 58 10 47 221 -6
105 -14 194 -19 199 -9 9 -1008 19 -1064 12z"/>
<path d="M5175 8693 c-66 -18 -59 -41 43 -142 81 -80 100 -107 265 -383 97
-164 177 -308 177 -320 0 -13 -58 -112 -128 -221 -70 -108 -156 -243 -192
-300 -38 -60 -100 -139 -153 -194 -140 -145 -130 -153 210 -153 133 0 253 4
267 10 33 12 33 42 1 95 -44 71 -37 100 68 279 50 86 96 158 101 159 11 2 68
-89 137 -219 57 -106 63 -155 27 -229 -39 -80 -45 -79 292 -89 316 -9 340 -6
340 38 0 17 -15 37 -50 66 -27 22 -66 64 -86 91 -56 77 -404 661 -404 678 0 9
42 80 93 158 50 78 139 216 196 308 82 131 119 180 177 234 41 38 74 76 74 84
0 7 -9 22 -21 33 -22 20 -63 22 -421 16 -127 -2 -138 -4 -148 -22 -9 -17 -5
-31 19 -74 17 -29 31 -64 31 -76 0 -12 -23 -64 -52 -114 -129 -229 -129 -229
-143 -215 -29 30 -165 307 -165 335 0 17 11 45 25 64 27 37 32 72 13 88 -14
11 -558 25 -593 15z"/>
<path d="M6813 8690 c-25 -10 -28 -26 -44 -238 -11 -142 -10 -154 6 -172 31
-35 68 -25 132 33 93 84 106 91 208 95 75 3 93 1 104 -12 11 -13 13 -122 9
-593 -4 -573 -4 -578 -27 -628 -12 -27 -34 -62 -48 -77 -28 -30 -35 -80 -14
-101 18 -19 542 -17 564 2 28 23 21 73 -14 107 -18 16 -41 49 -53 74 -21 45
-21 51 -18 630 3 433 7 587 15 592 7 4 44 8 82 8 88 0 131 -19 214 -94 37 -33
73 -56 86 -56 45 0 49 18 46 217 -1 101 -5 191 -8 199 -4 12 -82 14 -497 15
-270 0 -543 2 -606 4 -63 2 -125 0 -137 -5z"/>
<path d="M2675 6730 c-233 -37 -394 -170 -434 -358 -6 -29 -11 -88 -11 -130 0
-136 38 -233 124 -317 62 -60 135 -101 316 -179 234 -101 321 -164 336 -241
26 -142 -107 -224 -317 -196 -115 15 -173 45 -274 140 -94 89 -122 102 -161
76 l-26 -17 4 -191 c2 -126 7 -199 15 -213 32 -57 206 -88 488 -88 235 0 300
10 415 66 91 44 180 135 209 212 75 200 37 415 -94 534 -69 63 -124 95 -295
168 -204 88 -302 150 -336 215 -35 68 0 177 69 212 121 62 304 11 453 -125 41
-37 80 -68 88 -68 7 0 25 9 40 21 26 20 26 22 25 147 -1 70 -4 154 -8 187 -6
59 -7 60 -51 82 -106 52 -423 86 -575 63z"/>
<path d="M5725 6724 c-241 -51 -415 -237 -488 -522 -20 -79 -22 -111 -21 -332
0 -219 2 -253 22 -322 47 -170 103 -276 198 -372 110 -112 221 -154 429 -163
362 -15 573 107 685 398 65 170 89 366 71 588 -19 229 -60 361 -157 497 -85
120 -204 198 -349 229 -89 19 -297 18 -390 -1z m310 -293 c79 -37 129 -120
161 -266 21 -98 24 -452 4 -555 -42 -226 -114 -310 -266 -311 -127 -1 -188 29
-240 117 -62 106 -91 302 -79 533 15 282 71 433 180 482 56 26 185 26 240 0z"/>
<path d="M6793 6715 c-36 -25 -30 -68 13 -107 20 -18 46 -51 58 -73 21 -40 21
-45 21 -655 0 -611 0 -615 -22 -655 -11 -22 -35 -53 -52 -69 -33 -32 -41 -75
-18 -94 15 -13 577 -20 596 -8 6 4 11 22 11 41 0 26 -10 43 -48 82 -28 29 -52
65 -60 89 -17 58 -17 344 1 344 139 5 338 22 391 34 206 48 342 179 375 360
14 76 14 242 0 326 -31 193 -163 317 -394 371 -80 18 -131 21 -470 26 -341 4
-382 3 -402 -12z m754 -300 c96 -28 137 -104 137 -251 0 -98 -21 -161 -70
-203 -47 -41 -96 -52 -221 -49 l-108 3 -3 245 c-1 134 0 250 3 257 7 19 197
17 262 -2z"/>
<path d="M3578 6709 c-34 -20 -22 -66 32 -126 27 -29 54 -71 60 -91 6 -23 10
-254 10 -630 0 -665 4 -629 -75 -713 -47 -50 -54 -73 -32 -102 11 -16 42 -18
277 -24 314 -7 340 -3 340 54 0 29 -9 46 -49 88 -32 33 -52 65 -56 86 -3 19
-5 138 -3 264 l3 230 235 0 235 0 3 -220 c4 -276 -2 -306 -69 -374 -49 -49
-59 -79 -39 -111 8 -13 54 -15 294 -18 191 -2 292 1 306 8 14 8 20 21 20 47 0
28 -8 43 -39 72 -80 75 -76 33 -79 701 -2 449 0 606 9 640 9 31 29 60 67 98
46 46 53 58 47 81 -12 50 -18 51 -318 51 -173 0 -286 -4 -298 -10 -36 -20 -25
-67 30 -125 31 -33 54 -68 60 -93 7 -25 10 -116 9 -234 l-3 -193 -235 0 -235
0 -3 190 c-4 254 -2 266 59 330 55 58 66 105 30 125 -26 14 -570 13 -593 -1z"/>
</g>
</svg>
